<mxfile host="Electron" modified="2024-03-25T11:41:01.587Z" agent="Mozilla/5.0 (Windows NT 10.0; Win64; x64) AppleWebKit/537.36 (KHTML, like Gecko) draw.io/24.1.0 Chrome/120.0.6099.109 Electron/28.1.0 Safari/537.36" etag="RlenRasMl8a_0dsoSuYg" version="24.1.0" type="device">
  <diagram name="Page-1" id="2YBvvXClWsGukQMizWep">
    <mxGraphModel dx="1434" dy="836" grid="1" gridSize="10" guides="1" tooltips="1" connect="1" arrows="1" fold="1" page="1" pageScale="1" pageWidth="850" pageHeight="1100" math="0" shadow="0">
      <root>
        <mxCell id="0" />
        <mxCell id="1" parent="0" />
        <mxCell id="yqQzPONHKI9UtRNKC2Yu-1" value="&lt;b&gt;&lt;font style=&quot;font-size: 16px;&quot;&gt;Service&lt;/font&gt;&lt;/b&gt;" style="rounded=0;whiteSpace=wrap;html=1;fillColor=#dae8fc;strokeColor=#6c8ebf;" vertex="1" parent="1">
          <mxGeometry x="365" y="280" width="120" height="60" as="geometry" />
        </mxCell>
        <mxCell id="yqQzPONHKI9UtRNKC2Yu-5" value="&lt;b&gt;Interacts with API and&amp;nbsp;&lt;/b&gt;&lt;div&gt;&lt;b&gt;other external third-party software&amp;nbsp;&lt;/b&gt;&lt;/div&gt;" style="edgeStyle=orthogonalEdgeStyle;rounded=0;orthogonalLoop=1;jettySize=auto;html=1;entryX=0.5;entryY=1;entryDx=0;entryDy=0;" edge="1" parent="1" source="yqQzPONHKI9UtRNKC2Yu-2" target="yqQzPONHKI9UtRNKC2Yu-1">
          <mxGeometry relative="1" as="geometry" />
        </mxCell>
        <mxCell id="yqQzPONHKI9UtRNKC2Yu-6" value="Data Streams" style="edgeStyle=orthogonalEdgeStyle;rounded=0;orthogonalLoop=1;jettySize=auto;html=1;exitX=0;exitY=0.75;exitDx=0;exitDy=0;entryX=1;entryY=0.75;entryDx=0;entryDy=0;fontStyle=1" edge="1" parent="1" source="yqQzPONHKI9UtRNKC2Yu-2" target="yqQzPONHKI9UtRNKC2Yu-3">
          <mxGeometry relative="1" as="geometry" />
        </mxCell>
        <mxCell id="yqQzPONHKI9UtRNKC2Yu-9" style="edgeStyle=orthogonalEdgeStyle;rounded=0;orthogonalLoop=1;jettySize=auto;html=1;dashed=1;" edge="1" parent="1" source="yqQzPONHKI9UtRNKC2Yu-2">
          <mxGeometry relative="1" as="geometry">
            <mxPoint x="425" y="610" as="targetPoint" />
          </mxGeometry>
        </mxCell>
        <mxCell id="yqQzPONHKI9UtRNKC2Yu-12" value="Send Data" style="edgeStyle=orthogonalEdgeStyle;rounded=0;orthogonalLoop=1;jettySize=auto;html=1;exitX=1;exitY=0.75;exitDx=0;exitDy=0;entryX=0;entryY=0.75;entryDx=0;entryDy=0;fontStyle=1" edge="1" parent="1" source="yqQzPONHKI9UtRNKC2Yu-2" target="yqQzPONHKI9UtRNKC2Yu-4">
          <mxGeometry relative="1" as="geometry" />
        </mxCell>
        <mxCell id="yqQzPONHKI9UtRNKC2Yu-2" value="&lt;b&gt;&lt;font style=&quot;font-size: 16px;&quot;&gt;Controller&lt;/font&gt;&lt;/b&gt;" style="rounded=0;whiteSpace=wrap;html=1;fillColor=#dae8fc;strokeColor=#6c8ebf;" vertex="1" parent="1">
          <mxGeometry x="365" y="490" width="120" height="60" as="geometry" />
        </mxCell>
        <mxCell id="yqQzPONHKI9UtRNKC2Yu-7" value="Obeserve Data Changes" style="edgeStyle=orthogonalEdgeStyle;rounded=0;orthogonalLoop=1;jettySize=auto;html=1;exitX=1;exitY=0.25;exitDx=0;exitDy=0;entryX=0;entryY=0.25;entryDx=0;entryDy=0;dashed=1;fontStyle=1" edge="1" parent="1" source="yqQzPONHKI9UtRNKC2Yu-3" target="yqQzPONHKI9UtRNKC2Yu-2">
          <mxGeometry relative="1" as="geometry" />
        </mxCell>
        <mxCell id="yqQzPONHKI9UtRNKC2Yu-8" style="edgeStyle=orthogonalEdgeStyle;rounded=0;orthogonalLoop=1;jettySize=auto;html=1;dashed=1;" edge="1" parent="1" source="yqQzPONHKI9UtRNKC2Yu-3">
          <mxGeometry relative="1" as="geometry">
            <mxPoint x="110" y="610" as="targetPoint" />
          </mxGeometry>
        </mxCell>
        <mxCell id="yqQzPONHKI9UtRNKC2Yu-3" value="&lt;span style=&quot;font-size: 16px;&quot;&gt;&lt;b&gt;View&lt;/b&gt;&lt;/span&gt;&lt;span style=&quot;color: rgba(0, 0, 0, 0); font-family: monospace; font-size: 0px; text-align: start; text-wrap: nowrap;&quot;&gt;%3CmxGraphModel%3E%3Croot%3E%3CmxCell%20id%3D%220%22%2F%3E%3CmxCell%20id%3D%221%22%20parent%3D%220%22%2F%3E%3CmxCell%20id%3D%222%22%20value%3D%22%26lt%3Bb%26gt%3B%26lt%3Bfont%20style%3D%26quot%3Bfont-size%3A%2016px%3B%26quot%3B%26gt%3BController%26lt%3B%2Ffont%26gt%3B%26lt%3B%2Fb%26gt%3B%22%20style%3D%22rounded%3D0%3BwhiteSpace%3Dwrap%3Bhtml%3D1%3BfillColor%3D%23dae8fc%3BstrokeColor%3D%236c8ebf%3B%22%20vertex%3D%221%22%20parent%3D%221%22%3E%3CmxGeometry%20x%3D%22365%22%20y%3D%22490%22%20width%3D%22120%22%20height%3D%2260%22%20as%3D%22geometry%22%2F%3E%3C%2FmxCell%3E%3C%2Froot%3E%3C%2FmxGraphModel%3E&lt;/span&gt;" style="rounded=0;whiteSpace=wrap;html=1;fillColor=#dae8fc;strokeColor=#6c8ebf;" vertex="1" parent="1">
          <mxGeometry x="50" y="490" width="120" height="60" as="geometry" />
        </mxCell>
        <mxCell id="yqQzPONHKI9UtRNKC2Yu-13" value="Model Change Callbacks" style="edgeStyle=orthogonalEdgeStyle;rounded=0;orthogonalLoop=1;jettySize=auto;html=1;exitX=0;exitY=0.25;exitDx=0;exitDy=0;entryX=1;entryY=0.25;entryDx=0;entryDy=0;dashed=1;fontStyle=1" edge="1" parent="1" source="yqQzPONHKI9UtRNKC2Yu-4" target="yqQzPONHKI9UtRNKC2Yu-2">
          <mxGeometry relative="1" as="geometry" />
        </mxCell>
        <mxCell id="yqQzPONHKI9UtRNKC2Yu-4" value="&lt;span style=&quot;font-size: 16px;&quot;&gt;&lt;b&gt;Model&lt;/b&gt;&lt;/span&gt;" style="rounded=0;whiteSpace=wrap;html=1;fillColor=#dae8fc;strokeColor=#6c8ebf;" vertex="1" parent="1">
          <mxGeometry x="700" y="490" width="120" height="60" as="geometry" />
        </mxCell>
        <mxCell id="yqQzPONHKI9UtRNKC2Yu-10" value="&lt;b&gt;Datas Changes Callbacks&lt;/b&gt;" style="endArrow=classic;html=1;rounded=0;dashed=1;" edge="1" parent="1">
          <mxGeometry width="50" height="50" relative="1" as="geometry">
            <mxPoint x="410" y="610" as="sourcePoint" />
            <mxPoint x="110" y="610" as="targetPoint" />
          </mxGeometry>
        </mxCell>
        <mxCell id="yqQzPONHKI9UtRNKC2Yu-11" value="Receive Data" style="edgeStyle=orthogonalEdgeStyle;rounded=0;orthogonalLoop=1;jettySize=auto;html=1;exitX=0;exitY=1;exitDx=0;exitDy=0;entryX=1.033;entryY=0.9;entryDx=0;entryDy=0;entryPerimeter=0;fontStyle=1" edge="1" parent="1" source="yqQzPONHKI9UtRNKC2Yu-4" target="yqQzPONHKI9UtRNKC2Yu-2">
          <mxGeometry relative="1" as="geometry" />
        </mxCell>
      </root>
    </mxGraphModel>
  </diagram>
</mxfile>
